<?xml version="1.0" encoding="utf-8"?>
<!-- Generator: Adobe Illustrator 16.0.0, SVG Export Plug-In . SVG Version: 6.00 Build 0)  -->
<!DOCTYPE svg PUBLIC "-//W3C//DTD SVG 1.1//EN" "http://www.w3.org/Graphics/SVG/1.1/DTD/svg11.dtd">
<svg version="1.1" id="Layer_1" xmlns="http://www.w3.org/2000/svg" xmlns:xlink="http://www.w3.org/1999/xlink" x="0px" y="0px"
	 width="800px" height="600px" viewBox="0 0 800 600" style="enable-background:new 0 0 800 600;" xml:space="preserve">
<style type="text/css">
<![CDATA[
	.st0{fill:#E0E0E0;}
	.st1{fill:#BDBDBD;}
	.st2{fill:#F5F5F5;}
	.st3{fill:#297D36;}
	.st4{fill:url(#SVGID_1_);}
	.st5{fill:url(#SVGID_2_);}
	.st6{fill:url(#SVGID_3_);}
	.st7{fill:url(#SVGID_4_);}
	.st8{fill:url(#SVGID_5_);}
	.st9{fill:url(#SVGID_6_);}
	.st10{fill:url(#SVGID_7_);}
	.st11{fill:url(#SVGID_8_);}
	.st12{fill:url(#SVGID_9_);}
	.st13{fill:#C7D5F0;}
	.st14{fill:#FF9C71;}
	.st15{fill:url(#SVGID_10_);}
	.st16{fill:url(#SVGID_11_);}
	.st17{fill:url(#SVGID_12_);}
	.st18{fill:url(#SVGID_13_);}
	.st19{fill:url(#SVGID_14_);}
	.st20{fill:url(#SVGID_15_);}
	.st21{fill:url(#SVGID_16_);}
	.st22{fill:url(#SVGID_17_);}
	.st23{fill:url(#SVGID_18_);}
	.st24{fill:url(#SVGID_19_);}
	.st25{fill:url(#SVGID_20_);}
	.st26{fill:url(#SVGID_21_);}
	.st27{fill:url(#SVGID_22_);}
	.st28{fill:url(#SVGID_23_);}
	.st29{fill:url(#SVGID_24_);}
	.st30{fill:url(#SVGID_25_);}
	.st31{fill:url(#SVGID_26_);}
	.st32{fill:url(#SVGID_27_);}
	.st33{fill:url(#SVGID_28_);}
	.st34{fill:url(#SVGID_29_);}
	.st35{fill:url(#SVGID_30_);}
	.st36{fill:url(#SVGID_31_);}
	.st37{fill:url(#SVGID_32_);}
	.st38{fill:url(#SVGID_33_);}
	.st39{fill:url(#SVGID_34_);}
	.st40{fill:url(#SVGID_35_);}
	.st41{fill:url(#SVGID_36_);}
	.st42{fill:url(#SVGID_37_);}
	.st43{fill:url(#SVGID_38_);}
	.st44{fill:url(#SVGID_39_);}
	.st45{fill:url(#SVGID_40_);}
	.st46{fill:url(#SVGID_41_);}
	.st47{fill:url(#SVGID_42_);}
	.st48{fill:url(#SVGID_43_);}
	.st49{fill:url(#SVGID_44_);}
	.st50{fill:url(#SVGID_45_);}
	.st51{fill:url(#SVGID_46_);}
	.st52{fill:url(#SVGID_47_);}
	.st53{fill:url(#SVGID_48_);}
	.st54{fill:url(#SVGID_49_);}
	.st55{fill:url(#SVGID_50_);}
	.st56{fill:url(#SVGID_51_);}
]]>
</style>
<g>
	<g>
		
			<linearGradient id="SVGID_1_" gradientUnits="userSpaceOnUse" x1="-175.1184" y1="823.175" x2="-233.5819" y2="702.5406" gradientTransform="matrix(0.805 -0.5933 -0.5933 -0.805 667.4412 940.9436)">
			<stop  offset="0" style="stop-color:#8CBE54"/>
			<stop  offset="1" style="stop-color:#5B9346"/>
		</linearGradient>
		<path class="st4" d="M86,452.6c24,32.5,3.8,65.2,3.8,65.2s-37.2,9.6-61.2-22.9C4.7,462.3,3,400,3,400S62.1,420,86,452.6z"/>
		
			<linearGradient id="SVGID_2_" gradientUnits="userSpaceOnUse" x1="-212.1228" y1="753.8147" x2="-178.7569" y2="704.1938" gradientTransform="matrix(0.805 -0.5933 -0.5933 -0.805 667.4412 940.9436)">
			<stop  offset="0" style="stop-color:#8CBE54"/>
			<stop  offset="1" style="stop-color:#5B9346"/>
		</linearGradient>
		<path class="st5" d="M86,452.6C62.1,420,3,400,3,400l86.8,117.8C89.8,517.8,110,485.1,86,452.6z"/>
		<path class="st3" d="M89,516.7c-0.4,0.3-0.9,0.2-1.2-0.2L4.4,403.3c-0.3-0.4-0.2-0.9,0.2-1.2c0.4-0.3,0.9-0.2,1.2,0.2l83.4,113.2
			C89.5,515.9,89.4,516.4,89,516.7z"/>
		<path class="st3" d="M80.1,504.6l-34,3.2c-0.5,0-0.9-0.3-0.9-0.8c0-0.5,0.3-0.9,0.8-0.9l32.9-3.2l12.8-30.5
			c0.2-0.4,0.7-0.6,1.1-0.5c0.4,0.2,0.6,0.7,0.5,1.1L80.1,504.6z"/>
		<path class="st3" d="M60.6,478.2l-35.8,3.4c-0.5,0-0.9-0.3-0.9-0.8c0-0.5,0.3-0.9,0.8-0.9l34.7-3.3l13.5-32.2
			c0.2-0.4,0.7-0.6,1.1-0.5c0.4,0.2,0.6,0.7,0.5,1.1L60.6,478.2z"/>
		<path class="st3" d="M40,450.2l-25.3,2.4c-0.5,0-0.9-0.3-0.9-0.8c0-0.5,0.3-0.9,0.8-0.9l24.3-2.3l9.4-22.5
			c0.2-0.4,0.7-0.6,1.1-0.5c0.4,0.2,0.6,0.7,0.5,1.1L40,450.2z"/>
		<path class="st3" d="M18.5,421l-9.3,0.9c-0.5,0-0.9-0.3-0.9-0.8c0-0.5,0.3-0.9,0.8-0.9l8.3-0.8l3.2-7.6c0.2-0.4,0.7-0.6,1.1-0.5
			c0.4,0.2,0.6,0.7,0.5,1.1L18.5,421z"/>
	</g>
	<g>
		
			<linearGradient id="SVGID_3_" gradientUnits="userSpaceOnUse" x1="380.4246" y1="913.9329" x2="309.5613" y2="767.7126" gradientTransform="matrix(0.9433 0.3321 0.3321 -0.9433 51.321 1123.1538)">
			<stop  offset="0" style="stop-color:#8CBE54"/>
			<stop  offset="1" style="stop-color:#5B9346"/>
		</linearGradient>
		<path class="st6" d="M675.8,483.4c-16.3,46.2-62.8,48.3-62.8,48.3s-35-30.7-18.7-76.9c16.3-46.2,77.6-90.4,77.6-90.4
			S692.1,437.2,675.8,483.4z"/>
		
			<linearGradient id="SVGID_4_" gradientUnits="userSpaceOnUse" x1="335.572" y1="829.8616" x2="376.0161" y2="769.7141" gradientTransform="matrix(0.9433 0.3321 0.3321 -0.9433 51.321 1123.1538)">
			<stop  offset="0" style="stop-color:#8CBE54"/>
			<stop  offset="1" style="stop-color:#5B9346"/>
		</linearGradient>
		<path class="st7" d="M675.8,483.4c16.3-46.2-3.9-119.1-3.9-119.1L613,531.7C613,531.7,659.6,529.6,675.8,483.4z"/>
		<path class="st3" d="M613.6,530.1c-0.5-0.2-0.8-0.8-0.6-1.3L669.6,368c0.2-0.5,0.8-0.8,1.3-0.6c0.5,0.2,0.8,0.8,0.6,1.3
			l-56.6,160.8C614.7,530,614.1,530.3,613.6,530.1z"/>
		<path class="st3" d="M619.6,512.9l-26.4-31.8c-0.4-0.4-0.3-1.1,0.1-1.5c0.4-0.4,1.1-0.3,1.5,0.1l25.6,30.9l39.3-8
			c0.6-0.1,1.1,0.2,1.2,0.8c0.1,0.6-0.2,1.1-0.8,1.2L619.6,512.9z"/>
		<path class="st3" d="M632.8,475.4L605,441.9c-0.4-0.4-0.3-1.1,0.1-1.5c0.4-0.4,1.1-0.3,1.5,0.1l27,32.5l41.4-8.5
			c0.6-0.1,1.1,0.2,1.2,0.8c0.1,0.6-0.2,1.1-0.8,1.2L632.8,475.4z"/>
		<path class="st3" d="M646.8,435.7l-19.7-23.8c-0.4-0.4-0.3-1.1,0.1-1.5c0.4-0.4,1.1-0.3,1.5,0.1l18.9,22.8l29-5.9
			c0.6-0.1,1.1,0.3,1.2,0.8c0.1,0.6-0.2,1.1-0.8,1.2L646.8,435.7z"/>
		<path class="st3" d="M661.4,394.1l-7.2-8.7c-0.4-0.4-0.3-1.1,0.1-1.5c0.4-0.4,1.1-0.3,1.5,0.1l6.4,7.7l9.8-2
			c0.6-0.1,1.1,0.2,1.2,0.8c0.1,0.6-0.2,1.1-0.8,1.2L661.4,394.1z"/>
	</g>
	<g>
		
			<linearGradient id="SVGID_5_" gradientUnits="userSpaceOnUse" x1="-121.7844" y1="796.5403" x2="-187.2905" y2="661.3742" gradientTransform="matrix(0.9792 -0.2032 -0.2032 -0.9792 421.3924 1115.7942)">
			<stop  offset="0" style="stop-color:#8CBE54"/>
			<stop  offset="1" style="stop-color:#5B9346"/>
		</linearGradient>
		<path class="st8" d="M156.2,454.7c9.2,44.3-26.6,68.2-26.6,68.2s-42.4-7.6-51.6-52c-9.2-44.3,18.3-108.6,18.3-108.6
			S147,410.3,156.2,454.7z"/>
		
			<linearGradient id="SVGID_6_" gradientUnits="userSpaceOnUse" x1="-163.2458" y1="718.8264" x2="-125.8588" y2="663.2253" gradientTransform="matrix(0.9792 -0.2032 -0.2032 -0.9792 421.3924 1115.7942)">
			<stop  offset="0" style="stop-color:#8CBE54"/>
			<stop  offset="1" style="stop-color:#5B9346"/>
		</linearGradient>
		<path class="st9" d="M156.2,454.7c-9.2-44.3-60-92.4-60-92.4l33.3,160.6C129.6,522.9,165.4,499,156.2,454.7z"/>
		<path class="st3" d="M129.2,521.3c-0.5,0.1-1-0.2-1.1-0.7l-32-154.3c-0.1-0.5,0.2-1,0.7-1.1c0.5-0.1,1,0.2,1.1,0.7l32,154.3
			C130.1,520.7,129.8,521.2,129.2,521.3z"/>
		<path class="st3" d="M125.8,504.8l-36.1-12.6c-0.5-0.2-0.8-0.7-0.6-1.2c0.2-0.5,0.7-0.8,1.2-0.6l35,12.2l27.3-25.1
			c0.4-0.4,1-0.3,1.4,0.1c0.4,0.4,0.3,1-0.1,1.4L125.8,504.8z"/>
		<path class="st3" d="M118.4,468.9l-38-13.2c-0.5-0.2-0.8-0.7-0.6-1.2c0.2-0.5,0.7-0.8,1.2-0.6l36.9,12.9l28.8-26.5
			c0.4-0.4,1-0.3,1.4,0.1c0.4,0.4,0.3,1-0.1,1.4L118.4,468.9z"/>
		<path class="st3" d="M110.4,430.7l-26.9-9.4c-0.5-0.2-0.8-0.7-0.6-1.2c0.2-0.5,0.7-0.8,1.2-0.6l25.8,9l20.1-18.6
			c0.4-0.4,1-0.3,1.4,0.1c0.4,0.4,0.3,1-0.1,1.4L110.4,430.7z"/>
		<path class="st3" d="M102.2,390.9l-9.9-3.4c-0.5-0.2-0.8-0.7-0.6-1.2c0.2-0.5,0.7-0.8,1.2-0.6l8.8,3.1l6.8-6.3
			c0.4-0.4,1-0.3,1.4,0.1c0.4,0.4,0.3,1-0.1,1.4L102.2,390.9z"/>
	</g>
	<g>
		<path class="st0" d="M575.5,496.7c0,0-30.7,14.1-31.3,14.3c-0.5,0.2-2.4,3.5-2.4,3.5H598c0,0-0.3-8.9-2.6-17.8L575.5,496.7
			L575.5,496.7z"/>
		<path class="st0" d="M507.5,496.7c0,0-30.7,14.1-31.3,14.3c-0.5,0.2-2.4,3.5-2.4,3.5H530c0,0-0.3-8.9-2.6-17.8L507.5,496.7
			L507.5,496.7z"/>
		
			<linearGradient id="SVGID_7_" gradientUnits="userSpaceOnUse" x1="463.7351" y1="177.1335" x2="565.9518" y2="250.1043" gradientTransform="matrix(1 0 0 -1 0 601.0005)">
			<stop  offset="0" style="stop-color:#596A87"/>
			<stop  offset="0.3597" style="stop-color:#4F607E"/>
			<stop  offset="0.9763" style="stop-color:#334664"/>
			<stop  offset="1" style="stop-color:#324563"/>
		</linearGradient>
		<path class="st10" d="M504.7,275.1c0,0-10.3,112.3,0.5,222.6h22.7c0,0,6.5-112.6,26.9-222.6H504.7L504.7,275.1z"/>
		
			<linearGradient id="SVGID_8_" gradientUnits="userSpaceOnUse" x1="577.988" y1="136.5378" x2="551.0436" y2="348.6136" gradientTransform="matrix(1 0 0 -1 0 601.0005)">
			<stop  offset="0" style="stop-color:#596A87"/>
			<stop  offset="0.3908" style="stop-color:#4F6283"/>
			<stop  offset="1" style="stop-color:#36507A"/>
		</linearGradient>
		<path class="st11" d="M531.9,277.7c0,0,9.9,121.8,41.6,220h22.2c0,0-17.4-115.7-18.9-224.3L531.9,277.7z"/>
		
			<linearGradient id="SVGID_9_" gradientUnits="userSpaceOnUse" x1="426.8191" y1="472.7415" x2="426.9007" y2="454.1625" gradientTransform="matrix(1 0 0 -1 0 601.0005)">
			<stop  offset="0" style="stop-color:#FFEFE6"/>
			<stop  offset="1" style="stop-color:#FFD7C2"/>
		</linearGradient>
		<path class="st12" d="M434.9,137.5c0,0-5.8-7.5-7.8-10c-2-2.5-6.7-8.4-7.5-8.5c-0.8-0.1-1.5,2,0,5.4c1.5,3.4,4.5,7.4,4.8,8.1
			c0.3,0.7-2.5,11.5-0.4,16.1c2.1,4.5,4.6,4.6,4.6,4.6L434.9,137.5z"/>
		
			<linearGradient id="SVGID_10_" gradientUnits="userSpaceOnUse" x1="431.0886" y1="430.4104" x2="493.6059" y2="426.9575" gradientTransform="matrix(1 0 0 -1 0 601.0005)">
			<stop  offset="0" style="stop-color:#FFEFE6"/>
			<stop  offset="1" style="stop-color:#FFD7C2"/>
		</linearGradient>
		<path class="st15" d="M482.6,188.8L443,151.6c0,0-0.5-9.4-1.7-11.9c-1.2-2.5-3.7-5.1-4.3-7c-0.5-2-0.8-6.2-1.5-6.3
			c-0.7-0.1-3,1.9-2.9,5c0.1,3.1,0.7,4.6,0.9,5.7c0.3,1.1-4.7,7.3-5.9,11.1c-1.2,3.7-2.6,5.3-0.6,7.4c2,2.2,4.2,1.5,6.4,3.4
			c2.2,2,45.7,59,47.8,58.8c2.1-0.2,8.7-4.5,8.7-4.5L482.6,188.8z"/>
		
			<linearGradient id="SVGID_11_" gradientUnits="userSpaceOnUse" x1="584.7224" y1="329.0598" x2="616.2562" y2="327.3181" gradientTransform="matrix(1 0 0 -1 0 601.0005)">
			<stop  offset="0" style="stop-color:#FFEFE6"/>
			<stop  offset="1" style="stop-color:#FFD7C2"/>
		</linearGradient>
		<path class="st16" d="M596,228.7c0,0-16,74.5-16.1,76.1c-0.2,1.6,2.3,14.8,2.8,15.6c0.5,0.8,10.2,2.3,11.1,2.3
			c0.9,0,1.7-1.1,1.3-3c-0.4-1.9-1.4-9.1-1.4-10.1c0-1,1.9-7.2,2.4-10c0.5-2.9-1-8.1-1-8.1s23-59,22.8-61.2s-1.8-6.9-1.8-6.9
			L596,228.7z"/>
		
			<linearGradient id="SVGID_12_" gradientUnits="userSpaceOnUse" x1="490.9851" y1="441.3479" x2="510.9604" y2="402.7936" gradientTransform="matrix(1 0 0 -1 0 601.0005)">
			<stop  offset="0" style="stop-color:#F5F9FF"/>
			<stop  offset="0.296" style="stop-color:#D9E8FF"/>
			<stop  offset="1" style="stop-color:#D1E3FF"/>
		</linearGradient>
		<path class="st17" d="M513.4,151l-28.2,38l6.2,23.4l21.2-9.9C512.6,202.5,515.5,167.5,513.4,151z"/>
		
			<linearGradient id="SVGID_13_" gradientUnits="userSpaceOnUse" x1="533.1873" y1="441.5227" x2="543.1858" y2="459.0216" gradientTransform="matrix(1 0 0 -1 0 601.0005)">
			<stop  offset="0" style="stop-color:#FFEFE6"/>
			<stop  offset="0.9946" style="stop-color:#FCC9AE"/>
		</linearGradient>
		<polygon class="st18" points="563.1,117.7 557.6,143.7 537.5,158.2 532.1,147.2 533.3,132.4 		"/>
		
			<linearGradient id="SVGID_14_" gradientUnits="userSpaceOnUse" x1="522.0847" y1="503.1331" x2="578.1487" y2="500.0365" gradientTransform="matrix(1 0 0 -1 0 601.0005)">
			<stop  offset="0" style="stop-color:#FFEFE6"/>
			<stop  offset="1" style="stop-color:#FFD7C2"/>
		</linearGradient>
		<path class="st19" d="M521.5,83c0,0-5.6,15.9-5.3,27.3c0.3,11.4,5,23.5,8.7,24.6c3.7,1.1,20-0.1,28.5-5.6
			c9-5.8,10.2-12.4,10.2-12.4s11.1-4.9,13.4-22.1c2.3-17.2-12.8-33.9-27.8-32.2C534.2,64.4,525.4,71.9,521.5,83z"/>
		<path d="M552.6,84.7c-1.7,15.2,4.3,23.6,14.5,30c0,0,11.5-2.7,15.7-16.2c4.2-13.5-2.8-24.3-7.6-26.9c-2.5-9.8-11.1-19.9-26.7-19.4
			c-15.6,0.5-21.7,5.2-26,11.4c-4.3,6.2-12.2,9.7-13.6,9.9c-1.4,0.2-1.3,14.2,11.3,14c0,0,4.8-0.3,8.5-3.6c0,0-2.2,5.1,1,8.9
			C530.5,93.9,537.6,88,552.6,84.7z"/>
		<path d="M546.2,104.3c-0.3,1.3-1.6,2.1-2.9,1.8l0,0c-1.3-0.3-2.1-1.6-1.8-2.9l0.4-1.7c0.3-1.3,1.6-2.1,2.9-1.8l0,0
			c1.3,0.3,2.1,1.6,1.8,2.9L546.2,104.3z"/>
		<path d="M525.8,99.6c-0.3,1.3-1.6,2.1-2.9,1.8l0,0c-1.3-0.3-2.1-1.6-1.8-2.9l0.4-1.7c0.3-1.3,1.6-2.1,2.9-1.8l0,0
			c1.3,0.3,2.1,1.6,1.8,2.9L525.8,99.6z"/>
		
			<linearGradient id="SVGID_15_" gradientUnits="userSpaceOnUse" x1="521.5134" y1="492.9026" x2="577.5813" y2="489.8058" gradientTransform="matrix(1 0 0 -1 0 601.0005)">
			<stop  offset="0" style="stop-color:#FFEFE6"/>
			<stop  offset="1" style="stop-color:#FFD7C2"/>
		</linearGradient>
		<path class="st20" d="M561.5,112.4c0,0,2.2-11.5,7.4-11c5.2,0.5,7.2,6.9,4.6,12.7c-2.6,5.8-12,7.1-12,4
			C561.4,115,561.5,112.4,561.5,112.4z"/>
		
			<linearGradient id="SVGID_16_" gradientUnits="userSpaceOnUse" x1="523.0623" y1="477.6487" x2="543.5544" y2="477.6487" gradientTransform="matrix(1 0 0 -1 0 601.0005)">
			<stop  offset="0" style="stop-color:#FA9343"/>
			<stop  offset="1" style="stop-color:#E01F4D"/>
		</linearGradient>
		<path class="st21" d="M523.1,119.7l20.5,0.9c0,0-3,7.2-13.9,6.2C522.1,126.2,523.1,119.7,523.1,119.7z"/>
		
			<linearGradient id="SVGID_17_" gradientUnits="userSpaceOnUse" x1="509.5466" y1="456.9749" x2="570.1721" y2="339.9611" gradientTransform="matrix(1 0 0 -1 0 601.0005)">
			<stop  offset="0" style="stop-color:#F5F9FF"/>
			<stop  offset="0.296" style="stop-color:#D9E8FF"/>
			<stop  offset="1" style="stop-color:#D1E3FF"/>
		</linearGradient>
		<path class="st22" d="M558,141.7l-19.4,11.8l-6.1-11l-19.1,8.5c0,0-8.3,67.6-8.7,124.1c0,0,21.1,19.1,72.1-1.7
			c0,0,3.3-67.4,12.2-116.5C589,156.9,564.7,144,558,141.7z"/>
		
			<linearGradient id="SVGID_18_" gradientUnits="userSpaceOnUse" x1="533.3074" y1="442.9202" x2="546.2449" y2="442.9202" gradientTransform="matrix(1 0 0 -1 0 601.0005)">
			<stop  offset="0" style="stop-color:#FA9343"/>
			<stop  offset="1" style="stop-color:#E01F4D"/>
		</linearGradient>
		<polygon class="st23" points="533.3,154.3 536.3,162.6 540.9,162.6 546.2,154.9 538.6,153.5 		"/>
		
			<linearGradient id="SVGID_19_" gradientUnits="userSpaceOnUse" x1="546.988" y1="460.0686" x2="555.2552" y2="444.1121" gradientTransform="matrix(1 0 0 -1 0 601.0005)">
			<stop  offset="0" style="stop-color:#F5F9FF"/>
			<stop  offset="0.296" style="stop-color:#D9E8FF"/>
			<stop  offset="1" style="stop-color:#D1E3FF"/>
		</linearGradient>
		<polygon class="st24" points="538.6,153.5 548.3,162.6 563.1,143.8 559.3,135.8 		"/>
		
			<linearGradient id="SVGID_20_" gradientUnits="userSpaceOnUse" x1="526.8445" y1="459.7913" x2="534.4493" y2="445.1133" gradientTransform="matrix(1 0 0 -1 0 601.0005)">
			<stop  offset="0" style="stop-color:#F5F9FF"/>
			<stop  offset="0.296" style="stop-color:#D9E8FF"/>
			<stop  offset="1" style="stop-color:#D1E3FF"/>
		</linearGradient>
		<polygon class="st25" points="532.8,139.3 538.6,153.5 529.8,160.3 527.5,144.7 		"/>
		
			<linearGradient id="SVGID_21_" gradientUnits="userSpaceOnUse" x1="521.8806" y1="383.1926" x2="541.9246" y2="383.1926" gradientTransform="matrix(1 0 0 -1 0 601.0005)">
			<stop  offset="0" style="stop-color:#FA9343"/>
			<stop  offset="1" style="stop-color:#E01F4D"/>
		</linearGradient>
		<polygon class="st26" points="536.3,162.6 521.9,261.5 530.6,273 541.9,260.8 540.9,162.6 		"/>
		
			<linearGradient id="SVGID_22_" gradientUnits="userSpaceOnUse" x1="573.5037" y1="440.595" x2="603.497" y2="382.7047" gradientTransform="matrix(1 0 0 -1 0 601.0005)">
			<stop  offset="0" style="stop-color:#F5F9FF"/>
			<stop  offset="0.296" style="stop-color:#D9E8FF"/>
			<stop  offset="1" style="stop-color:#D1E3FF"/>
		</linearGradient>
		<path class="st27" d="M594.2,226.8L574.6,196c0,0-3.1-31.3,14.3-39.1l26.1,63.2C615,220.1,606.5,223.8,594.2,226.8z"/>
		
			<linearGradient id="SVGID_23_" gradientUnits="userSpaceOnUse" x1="600.1121" y1="387.8391" x2="608.272" y2="372.0892" gradientTransform="matrix(1 0 0 -1 0 601.0005)">
			<stop  offset="0" style="stop-color:#F5F9FF"/>
			<stop  offset="0.296" style="stop-color:#D9E8FF"/>
			<stop  offset="1" style="stop-color:#D1E3FF"/>
		</linearGradient>
		<path class="st28" d="M589,221.2l5.8,11.6c0,0,19.3-4.2,26.2-8.4l-7.3-15.2C613.6,209.2,602.3,211.5,589,221.2z"/>
		
			<linearGradient id="SVGID_24_" gradientUnits="userSpaceOnUse" x1="499.8162" y1="392.3625" x2="482.1045" y2="406.4886" gradientTransform="matrix(1 0 0 -1 0 601.0005)">
			<stop  offset="0" style="stop-color:#F5F9FF"/>
			<stop  offset="0.296" style="stop-color:#D9E8FF"/>
			<stop  offset="1" style="stop-color:#D1E3FF"/>
		</linearGradient>
		<path class="st29" d="M489.7,181.7l-8,6.4l5.9,29.7l15.3-8.6C502.9,209.2,497,192.3,489.7,181.7z"/>
		
			<linearGradient id="SVGID_25_" gradientUnits="userSpaceOnUse" x1="425.5251" y1="463.8518" x2="425.0362" y2="445.0286" gradientTransform="matrix(1 0 0 -1 0 601.0005)">
			<stop  offset="0" style="stop-color:#FFEFE6"/>
			<stop  offset="1" style="stop-color:#FFD7C2"/>
		</linearGradient>
		<path class="st30" d="M423.8,133.1c-0.7-0.1-5.5,12.6-5.5,14.7c0,2,3.3,6,4.8,6.3c1.5,0.2,6,1.3,7.3-2.4s2.3-6.4,1.8-9.5
			C431.7,139.2,427.4,133.7,423.8,133.1z"/>
	</g>
	<g>
		
			<linearGradient id="SVGID_26_" gradientUnits="userSpaceOnUse" x1="398.1287" y1="110.6511" x2="346.313" y2="106.7648" gradientTransform="matrix(1 0 0 -1 0 601.0005)">
			<stop  offset="0" style="stop-color:#FFEFE6"/>
			<stop  offset="1" style="stop-color:#FFD7C2"/>
		</linearGradient>
		<path class="st31" d="M340.3,470.5l14.9,44h42.9c0,0-4.6-5-5.6-5.5c-1-0.5-25.8-9.5-25.8-9.5l-11-29.8L340.3,470.5z"/>
		<path class="st14" d="M345.7,514.5h55.1c0,0-5.2-6.1-6.7-6.8c-1.6-0.7-16.8-5.6-16.8-5.6s-3.9,3.3-7.3,8.6l-21.8,1.7L345.7,514.5z
			"/>
		<linearGradient id="SVGID_27_" gradientUnits="userSpaceOnUse" x1="246.6418" y1="403.9612" x2="373.2512" y2="403.9612">
			<stop  offset="0" style="stop-color:#37324A"/>
			<stop  offset="4.168683e-002" style="stop-color:#363149"/>
			<stop  offset="0.529" style="stop-color:#2F273C"/>
			<stop  offset="1" style="stop-color:#2D2438"/>
		</linearGradient>
		<polygon class="st32" points="302.1,327.9 373.3,480 335.1,480 317.8,409.9 246.6,329.8 		"/>
		<polygon class="st0" points="286.6,400.2 273.1,400.2 275.8,489.4 283.9,489.4 		"/>
		
			<linearGradient id="SVGID_28_" gradientUnits="userSpaceOnUse" x1="237.9397" y1="96.8962" x2="314.2447" y2="102.3189" gradientTransform="matrix(1 0 0 -1 0 601.0005)">
			<stop  offset="0" style="stop-color:#070707"/>
			<stop  offset="1" style="stop-color:#2D262B"/>
		</linearGradient>
		<polygon class="st33" points="315.3,508.3 289.8,498.2 286.6,485.3 279.8,485.3 273.1,485.3 269.8,498.2 244.3,508.3 238.3,514.5 
			279.8,514.5 321.4,514.5 		"/>
		
			<linearGradient id="SVGID_29_" gradientUnits="userSpaceOnUse" x1="265.7317" y1="291.7205" x2="291.0683" y2="309.8079" gradientTransform="matrix(1 0 0 -0.9057 4.296875e-002 666.1282)">
			<stop  offset="0" style="stop-color:#070707"/>
			<stop  offset="1" style="stop-color:#2D262B"/>
		</linearGradient>
		<polygon class="st34" points="293.3,406.2 266.4,406.2 258.8,384.4 300.9,384.4 		"/>
		<path class="st1" d="M280.3,361.1H234c0,3.7,0.5,9.9,3,14.5c2.5,4.6,11.7,10,14.3,10c2.6,0,29,0,29,0s25.5,0,28.1,0
			c2.6,0,11.8-5.4,14.3-10c2.5-4.6,3-10.7,3-14.5H280.3z"/>
		
			<linearGradient id="SVGID_30_" gradientUnits="userSpaceOnUse" x1="355.6838" y1="109.9436" x2="307.7267" y2="106.3468" gradientTransform="matrix(1 0 0 -1 0 601.0005)">
			<stop  offset="0" style="stop-color:#FFEFE6"/>
			<stop  offset="1" style="stop-color:#FFD7C2"/>
		</linearGradient>
		<path class="st35" d="M316.6,470.5l-11.3,44h50.4c0,0-4.6-5-5.6-5.5c-1-0.5-25.8-9.5-25.8-9.5l9-29.8L316.6,470.5z"/>
		<linearGradient id="SVGID_31_" gradientUnits="userSpaceOnUse" x1="237.4954" y1="400.1936" x2="363.0725" y2="400.1936">
			<stop  offset="0" style="stop-color:#37324A"/>
			<stop  offset="0.5286" style="stop-color:#363047"/>
			<stop  offset="0.8512" style="stop-color:#31293F"/>
			<stop  offset="1" style="stop-color:#2D2438"/>
		</linearGradient>
		<path class="st36" d="M238.4,326.3c0,0-6,25.7,12.4,34.8c18.4,9.1,81.5,35.3,81.5,35.3l-23.4,77.8h37c0,0,16.6-79.1,17.1-81
			c0.4-2,0-8.9-7.2-14.8c-7.2-5.9-55.4-48.5-55.4-48.5L238.4,326.3z"/>
		<path d="M197.3,153.9c1.4,11-3,21.2-9.1,25.5c-6.1,4.4-5.9,12-2.1,18.7c3.8,6.7,2,12.9-4.3,18.7c-6.2,5.8-8.4,30.9,20.6,27.8
			c29-3.1,28.3-28.6,42.2-33.9c13.9-5.2,20.5-9.9,18.9-21.7c-1.5-11.8-4.1-23-15.1-28.2C237.3,155.6,202.5,146.3,197.3,153.9z"/>
		
			<linearGradient id="SVGID_32_" gradientUnits="userSpaceOnUse" x1="-1448.8845" y1="563.8997" x2="-1448.8142" y2="547.8678" gradientTransform="matrix(-0.9845 -0.1752 0.1752 -0.9845 -1170.0225 505.3907)">
			<stop  offset="0" style="stop-color:#FFEFE6"/>
			<stop  offset="1" style="stop-color:#FFD7C2"/>
		</linearGradient>
		<path class="st37" d="M346.9,210.7c0,0,6.1-5.5,8.2-7.3c2.1-1.8,7-6.1,7.7-6.1c0.7,0.1,1,1.9-0.8,4.6c-1.8,2.7-4.9,5.6-5.3,6.2
			c-0.4,0.6,0.4,10.1-2.1,13.7c-2.5,3.5-4.7,3.2-4.7,3.2L346.9,210.7z"/>
		
			<linearGradient id="SVGID_33_" gradientUnits="userSpaceOnUse" x1="-1445.1785" y1="527.3674" x2="-1391.0791" y2="524.3794" gradientTransform="matrix(-0.9845 -0.1752 0.1752 -0.9845 -1170.0225 505.3907)">
			<stop  offset="0" style="stop-color:#FFEFE6"/>
			<stop  offset="1" style="stop-color:#FFD7C2"/>
		</linearGradient>
		<path class="st38" d="M298.5,247.1l39.4-25.6c0,0,1.8-7.9,3.2-9.8c1.4-1.9,4-3.7,4.7-5.3c0.8-1.6,1.6-5.2,2.3-5.1
			c0.6,0.1,2.3,2.1,1.7,4.7c-0.6,2.6-1.3,3.8-1.7,4.7c-0.4,0.9,2.9,6.9,3.3,10.3c0.5,3.4,1.4,4.9-0.6,6.4c-2,1.5-3.8,0.6-5.9,1.9
			c-2.1,1.3-47.9,43.2-49.6,42.7c-1.7-0.5-6.7-5.1-6.7-5.1L298.5,247.1z"/>
		
			<linearGradient id="SVGID_34_" gradientUnits="userSpaceOnUse" x1="-1449.9958" y1="556.2327" x2="-1450.4178" y2="539.9901" gradientTransform="matrix(-0.9845 -0.1752 0.1752 -0.9845 -1170.0225 505.3907)">
			<stop  offset="0" style="stop-color:#FFEFE6"/>
			<stop  offset="1" style="stop-color:#FFD7C2"/>
		</linearGradient>
		<path class="st39" d="M357.1,208.7c0.6,0,2.7,11.6,2.4,13.3c-0.3,1.7-3.7,4.6-5,4.6c-1.4,0-5.3,0.2-5.8-3.2
			c-0.5-3.4-1-5.8-0.1-8.3C349.4,212.6,353.9,208.6,357.1,208.7z"/>
		<path class="st14" d="M266.9,201l28.6,45.1l13.2-11.1c0,0,5.8,9.8,5.1,32.7l-21,4.7l-25.6-23.6L266.9,201z"/>
		
			<linearGradient id="SVGID_35_" gradientUnits="userSpaceOnUse" x1="252.6692" y1="379.6135" x2="234.1394" y2="402.0789" gradientTransform="matrix(1 0 0 -1 0 601.0005)">
			<stop  offset="0" style="stop-color:#FFEFE6"/>
			<stop  offset="0.9946" style="stop-color:#FCC9AE"/>
		</linearGradient>
		<polygon class="st40" points="223.2,181.8 227.6,198.5 230,220.2 256.3,228.3 265,213.9 252.1,198 249.1,190.8 		"/>
		<path class="st2" d="M224.1,212.7l28.5,9.5l8.7-13.9l43.4,123.8c0,0-19.7,5.4-41.1,0L224.1,212.7z"/>
		<path d="M257.1,157.9c0,0,9.1-3,8.9-14.7c-0.2-11.7-15.2-18.3-24.2-20.8C232.7,119.9,229.1,150.8,257.1,157.9z"/>
		
			<linearGradient id="SVGID_36_" gradientUnits="userSpaceOnUse" x1="258.9875" y1="442.0413" x2="203.9507" y2="433.8268" gradientTransform="matrix(1 0 0 -1 0 601.0005)">
			<stop  offset="0" style="stop-color:#FFEFE6"/>
			<stop  offset="1" style="stop-color:#FFD7C2"/>
		</linearGradient>
		<path class="st41" d="M243,133c0,0,14.5,7.1,17,19.9c2.5,12.8,3.1,23,3,26.1c-0.1,3.1-5.8,14-10,14.7c-4.2,0.8-21.9,1.7-31.3-13
			c-14.5-0.2-21.2-19.2-14.6-35.2C213.8,129.6,231.9,126,243,133z"/>
		<path d="M242.5,122.7c8.1,3.7,16.7,30.6-27.1,53.1c0,0-14.1-1.2-17.5-16.7c-3.5-16.2,7.6-29,17-34.6
			C223.7,119.1,236.8,120.1,242.5,122.7z"/>
		
			<linearGradient id="SVGID_37_" gradientUnits="userSpaceOnUse" x1="260.5408" y1="431.7542" x2="205.4921" y2="423.5379" gradientTransform="matrix(1 0 0 -1 0 601.0005)">
			<stop  offset="0" style="stop-color:#FFEFE6"/>
			<stop  offset="1" style="stop-color:#FFD7C2"/>
		</linearGradient>
		<path class="st42" d="M221.5,173.6c0,0-4.5-6.7-9.5-5.6c-5,1.1-4.8,7.9,0.4,12.7c5.3,4.8,11.5,3,11.7,1
			C224.2,179.6,221.5,173.6,221.5,173.6z"/>
		<path d="M241.7,162.7c-0.3-1.3-1.6-2.1-2.9-1.8c-1.3,0.3-2.1,1.6-1.8,2.9l0.4,1.7c0.3,1.3,1.6,2.1,2.9,1.8
			c1.3-0.3,2.1-1.6,1.8-2.9L241.7,162.7z"/>
		<path d="M260.1,160.2l-0.4-1.7c-0.3-1.3-1.6-2.1-2.9-1.8c-1.3,0.3-2.1,1.6-1.8,2.9l0.4,1.7c0.3,1.3,1.6,2.1,2.9,1.8
			C259.6,162.7,260.4,161.5,260.1,160.2z"/>
		
			<linearGradient id="SVGID_38_" gradientUnits="userSpaceOnUse" x1="260.3782" y1="420.1897" x2="246.7047" y2="417.3383" gradientTransform="matrix(1 0 0 -1 0 601.0005)">
			<stop  offset="0" style="stop-color:#FA9343"/>
			<stop  offset="1" style="stop-color:#E01F4D"/>
		</linearGradient>
		<path class="st43" d="M259.3,180.8c0,0-0.1,0.2-0.4,0.4c-0.3,0.3-0.6,0.6-1.2,0.9c-1,0.6-2.5,1.2-4,1.3c-1.5,0.3-3.1,0.1-4.2-0.1
			c-1.1-0.2-1.9-0.5-1.9-0.5c-0.2-0.1-0.3-0.2-0.2-0.4c0-0.1,0.1-0.2,0.2-0.2l0,0c0,0,0.7-0.2,1.8-0.4c0.5,0,1.1-0.2,1.8-0.3
			c0.7-0.1,1.3-0.2,2-0.4c1.4-0.3,2.7-0.6,3.7-0.8c0.5-0.1,1-0.1,1.3-0.2c0.3-0.1,0.5-0.1,0.5-0.1c0.3,0,0.5,0.1,0.6,0.4
			C259.4,180.6,259.4,180.7,259.3,180.8L259.3,180.8z"/>
		<path class="st14" d="M226.9,196l49.5,142.3c0,0-20.8,5.7-49.5,0c0,0,0.9-21.2,8.3-45.4c0,0-39-71.8-38-73.6
			C198.2,217.5,215.8,205.3,226.9,196z"/>
		<path class="st14" d="M250.8,195c0,0,34.8,90.9,53.2,141.6l9.6-8.6l-28-81.2c0,0,1.5-12.3,0.7-14.5c-0.9-2.2-19.4-31.2-19.4-31.2
			L250.8,195z"/>
		
			<linearGradient id="SVGID_39_" gradientUnits="userSpaceOnUse" x1="302.6345" y1="308.4944" x2="236.9228" y2="303.5659" gradientTransform="matrix(1 0 0 -1 0 601.0005)">
			<stop  offset="0" style="stop-color:#FFEFE6"/>
			<stop  offset="1" style="stop-color:#FFD7C2"/>
		</linearGradient>
		<path class="st44" d="M231.9,301.6H301c0,0-1-6.4-1.3-6.7c-0.3-0.2-12.6-7.9-14-8.1c-1.4-0.2-18.7,6.7-18.7,6.7l-33.1-4.8
			L231.9,301.6z"/>
		<path class="st14" d="M197.3,219.3c0,0-8.9,40.6-9.1,82.3h45.6l4.7-17.8c0,0-19.1,0.5-27.3,1.9l8.9-35.6
			C217.8,236.5,207,219.1,197.3,219.3z"/>
		<path class="st14" d="M303.3,514.5h55.1c0,0-5.2-6.1-6.7-6.8c-1.6-0.7-16.8-5.6-16.8-5.6s-3.9,3.3-7.3,8.6l-21.8,1.7L303.3,514.5z
			"/>
	</g>
	<g>
		<g>
			
				<linearGradient id="SVGID_40_" gradientUnits="userSpaceOnUse" x1="433.2322" y1="151.7781" x2="433.2322" y2="85.3714" gradientTransform="matrix(1 0 0 -1 0 601.0005)">
				<stop  offset="0" style="stop-color:#BA586E"/>
				<stop  offset="1" style="stop-color:#BA815D"/>
			</linearGradient>
			<polygon class="st45" points="436,514.5 446.2,514.5 446.2,319.5 420.3,319.5 			"/>
			
				<linearGradient id="SVGID_41_" gradientUnits="userSpaceOnUse" x1="-1561.5906" y1="151.7791" x2="-1561.5906" y2="85.3724" gradientTransform="matrix(-1 0 0 -1 -1394.3735 601.0005)">
				<stop  offset="0" style="stop-color:#BA586E"/>
				<stop  offset="1" style="stop-color:#BA815D"/>
			</linearGradient>
			<polygon class="st46" points="164.4,514.5 154.3,514.5 154.3,319.5 180.2,319.5 			"/>
		</g>
		
			<linearGradient id="SVGID_42_" gradientUnits="userSpaceOnUse" x1="37.2332" y1="405.3665" x2="351.5907" y2="193.3576" gradientTransform="matrix(1 0 0 -1 0 601.0005)">
			<stop  offset="0" style="stop-color:#BA586E"/>
			<stop  offset="1" style="stop-color:#BA815D"/>
		</linearGradient>
		<rect x="148.2" y="309.1" class="st47" width="304" height="127.8"/>
		
			<linearGradient id="SVGID_43_" gradientUnits="userSpaceOnUse" x1="75.2859" y1="445.929" x2="344.1587" y2="264.5959" gradientTransform="matrix(1 0 0 -1 0 601.0005)">
			<stop  offset="0" style="stop-color:#BA586E"/>
			<stop  offset="1" style="stop-color:#D19C79"/>
		</linearGradient>
		<rect x="136.9" y="301.6" class="st48" width="326.7" height="10.4"/>
	</g>
	<path class="st13" d="M314.4,86.8l-7.7,7.8c6.1,1.7,10.6,7.3,10.6,14c0,8-6.5,14.5-14.5,14.5c-6.6,0-12.2-4.4-13.9-10.5l-7.7,7.8
		c4.2,7.7,12.3,12.9,21.6,12.9c13.6,0,24.7-11.1,24.7-24.7C327.4,99.2,322.1,91,314.4,86.8z"/>
	<g>
		
			<linearGradient id="SVGID_44_" gradientUnits="userSpaceOnUse" x1="345.0173" y1="466.7239" x2="274.2441" y2="521.2449" gradientTransform="matrix(1 0 0 -1 0 601.0005)">
			<stop  offset="0" style="stop-color:#60467F"/>
			<stop  offset="0.326" style="stop-color:#5D4680"/>
			<stop  offset="0.5788" style="stop-color:#534482"/>
			<stop  offset="0.8063" style="stop-color:#434187"/>
			<stop  offset="1" style="stop-color:#2E3E8C"/>
		</linearGradient>
		<path class="st49" d="M301,125c-13.6,0-24.7-11.1-24.7-24.7c0-13.6,11.1-24.7,24.7-24.7c13.6,0,24.7,11.1,24.7,24.7
			C325.6,113.9,314.6,125,301,125z M301,85.8c-8,0-14.5,6.5-14.5,14.5c0,8,6.5,14.5,14.5,14.5s14.5-6.5,14.5-14.5S309,85.8,301,85.8
			z"/>
	</g>
	<path class="st13" d="M483.3,25.7l-7.7,7.8c6.1,1.7,10.6,7.3,10.6,14c0,8-6.5,14.5-14.5,14.5c-6.6,0-12.2-4.4-13.9-10.5l-7.7,7.8
		c4.2,7.7,12.3,12.9,21.6,12.9c13.6,0,24.7-11.1,24.7-24.7C496.3,38.1,491.1,29.9,483.3,25.7z"/>
	<g>
		
			<linearGradient id="SVGID_45_" gradientUnits="userSpaceOnUse" x1="513.9705" y1="527.8333" x2="443.1976" y2="582.3539" gradientTransform="matrix(1 0 0 -1 0 601.0005)">
			<stop  offset="0.2097" style="stop-color:#B56255"/>
			<stop  offset="0.3671" style="stop-color:#BB6451"/>
			<stop  offset="0.5783" style="stop-color:#CC6B46"/>
			<stop  offset="0.8192" style="stop-color:#E87535"/>
			<stop  offset="0.8495" style="stop-color:#EC7732"/>
		</linearGradient>
		<path class="st50" d="M469.9,63.9c-13.6,0-24.7-11.1-24.7-24.7c0-13.6,11.1-24.7,24.7-24.7c13.6,0,24.7,11.1,24.7,24.7
			C494.6,52.8,483.5,63.9,469.9,63.9z M469.9,24.7c-8,0-14.5,6.5-14.5,14.5c0,8,6.5,14.5,14.5,14.5s14.5-6.5,14.5-14.5
			S477.9,24.7,469.9,24.7z"/>
	</g>
	<path class="st13" d="M297.2,545.6l-7.7,7.8c6.1,1.7,10.6,7.3,10.6,13.9c0,8-6.5,14.5-14.5,14.5c-6.6,0-12.2-4.4-13.9-10.5
		l-7.7,7.8c4.2,7.7,12.3,12.9,21.6,12.9c13.6,0,24.7-11.1,24.7-24.7C310.2,558,305,549.8,297.2,545.6z"/>
	<g>
		
			<linearGradient id="SVGID_46_" gradientUnits="userSpaceOnUse" x1="327.8718" y1="7.9607" x2="257.0991" y2="62.4813" gradientTransform="matrix(1 0 0 -1 0 601.0005)">
			<stop  offset="0.2097" style="stop-color:#B56255"/>
			<stop  offset="0.3671" style="stop-color:#BB6451"/>
			<stop  offset="0.5783" style="stop-color:#CC6B46"/>
			<stop  offset="0.8192" style="stop-color:#E87535"/>
			<stop  offset="0.8495" style="stop-color:#EC7732"/>
		</linearGradient>
		<path class="st51" d="M283.8,583.8c-13.6,0-24.7-11.1-24.7-24.7c0-13.6,11.1-24.7,24.7-24.7c13.6,0,24.7,11.1,24.7,24.7
			C308.5,572.7,297.4,583.8,283.8,583.8z M283.8,544.6c-8,0-14.5,6.5-14.5,14.5c0,8,6.5,14.5,14.5,14.5s14.5-6.5,14.5-14.5
			C298.3,551.1,291.8,544.6,283.8,544.6z"/>
	</g>
	<path class="st13" d="M673.9,123.9l-7.7,7.8c6.1,1.7,10.6,7.3,10.6,13.9c0,8-6.5,14.5-14.5,14.5c-6.6,0-12.2-4.4-13.9-10.5
		l-7.7,7.8c4.2,7.7,12.3,12.9,21.6,12.9c13.6,0,24.7-11.1,24.7-24.7C686.9,136.3,681.7,128.1,673.9,123.9z"/>
	<g>
		
			<linearGradient id="SVGID_47_" gradientUnits="userSpaceOnUse" x1="704.5867" y1="429.6272" x2="633.8132" y2="484.1484" gradientTransform="matrix(1 0 0 -1 0 601.0005)">
			<stop  offset="0" style="stop-color:#60467F"/>
			<stop  offset="0.326" style="stop-color:#5D4680"/>
			<stop  offset="0.5788" style="stop-color:#534482"/>
			<stop  offset="0.8063" style="stop-color:#434187"/>
			<stop  offset="1" style="stop-color:#2E3E8C"/>
		</linearGradient>
		<path class="st52" d="M660.5,162.1c-13.6,0-24.7-11.1-24.7-24.7s11.1-24.7,24.7-24.7c13.6,0,24.7,11.1,24.7,24.7
			S674.1,162.1,660.5,162.1z M660.5,122.9c-8,0-14.5,6.5-14.5,14.5c0,8,6.5,14.5,14.5,14.5s14.5-6.5,14.5-14.5
			C675,129.4,668.5,122.9,660.5,122.9z"/>
	</g>
	<g>
		
			<linearGradient id="SVGID_48_" gradientUnits="userSpaceOnUse" x1="336.0027" y1="290.4299" x2="361.9337" y2="308.9416" gradientTransform="matrix(1 0 0 -1 0 601.0005)">
			<stop  offset="0" style="stop-color:#596A87"/>
			<stop  offset="0.3597" style="stop-color:#4F607E"/>
			<stop  offset="0.9763" style="stop-color:#334664"/>
			<stop  offset="1" style="stop-color:#324563"/>
		</linearGradient>
		<rect x="326.7" y="297.2" class="st53" width="49.8" height="4.4"/>
		
			<linearGradient id="SVGID_49_" gradientUnits="userSpaceOnUse" x1="384.1711" y1="283.2849" x2="426.7011" y2="313.6463" gradientTransform="matrix(1 0 0 -1 0 601.0005)">
			<stop  offset="0" style="stop-color:#596A87"/>
			<stop  offset="0.3597" style="stop-color:#4F607E"/>
			<stop  offset="0.9763" style="stop-color:#334664"/>
			<stop  offset="1" style="stop-color:#324563"/>
		</linearGradient>
		<rect x="368" y="297.2" class="st54" width="83.7" height="4.4"/>
		
			<linearGradient id="SVGID_50_" gradientUnits="userSpaceOnUse" x1="189.302" y1="375.0989" x2="228.4837" y2="299.4738" gradientTransform="matrix(1 0 0.208 -1 134.7434 601.0005)">
			<stop  offset="0" style="stop-color:#596A87"/>
			<stop  offset="0.3908" style="stop-color:#4F6283"/>
			<stop  offset="1" style="stop-color:#36507A"/>
		</linearGradient>
		<polygon class="st55" points="451.7,298.5 368,298.5 379.8,241.5 463.5,241.5 		"/>
		
			<linearGradient id="SVGID_51_" gradientUnits="userSpaceOnUse" x1="274.6228" y1="339.1877" x2="281.978" y2="324.9915" gradientTransform="matrix(1 0 0.1419 -1 91.0625 600.9155)">
			<stop  offset="0" style="stop-color:#FFFFFF"/>
			<stop  offset="0.317" style="stop-color:#F5F9FF"/>
			<stop  offset="0.8601" style="stop-color:#D9E8FF"/>
			<stop  offset="1" style="stop-color:#D1E3FF"/>
		</linearGradient>
		<path class="st56" d="M425.3,270c-0.7,4.6-4.9,8.4-9.5,8.4s-7.8-3.7-7.2-8.4c0.7-4.6,4.9-8.4,9.5-8.4
			C422.7,261.7,425.9,265.4,425.3,270z"/>
	</g>
</g>
</svg>
